<mxfile host="app.diagrams.net" modified="2020-04-24T13:51:27.054Z" agent="5.0 (Macintosh; Intel Mac OS X 10_14_6) AppleWebKit/537.36 (KHTML, like Gecko) Chrome/81.0.4044.122 Safari/537.36" etag="F4aoSxmmLqCPF-2qOBna" version="13.0.0" type="github">
  <diagram id="IgxMZSIr6nn1EPAtfMqa" name="Page-1">
    <mxGraphModel dx="1036" dy="601" grid="1" gridSize="10" guides="1" tooltips="1" connect="1" arrows="1" fold="1" page="1" pageScale="1" pageWidth="827" pageHeight="1169" math="0" shadow="0">
      <root>
        <mxCell id="0" />
        <mxCell id="1" parent="0" />
        <mxCell id="IPdCppuI9ly6e9vYi5Sx-31" value="" style="shape=ext;rounded=1;html=1;whiteSpace=wrap;dashed=1;dashPattern=1 4;" vertex="1" parent="1">
          <mxGeometry x="120" y="170" width="590" height="85" as="geometry" />
        </mxCell>
        <mxCell id="IPdCppuI9ly6e9vYi5Sx-29" value="" style="shape=ext;rounded=1;html=1;whiteSpace=wrap;dashed=1;dashPattern=1 4;" vertex="1" parent="1">
          <mxGeometry x="119" y="260" width="590" height="180" as="geometry" />
        </mxCell>
        <mxCell id="IPdCppuI9ly6e9vYi5Sx-5" value="应用画像&lt;br&gt;浩渺，语海" style="shape=process;whiteSpace=wrap;html=1;backgroundOutline=1;fillColor=#E6E6E6;" vertex="1" parent="1">
          <mxGeometry x="195" y="190" width="120" height="60" as="geometry" />
        </mxCell>
        <mxCell id="IPdCppuI9ly6e9vYi5Sx-6" value="容量风险识别&lt;br&gt;化竹，语海" style="shape=process;whiteSpace=wrap;html=1;backgroundOutline=1;fillColor=#E6E6E6;" vertex="1" parent="1">
          <mxGeometry x="510" y="190" width="120" height="60" as="geometry" />
        </mxCell>
        <mxCell id="IPdCppuI9ly6e9vYi5Sx-8" style="rounded=0;orthogonalLoop=1;jettySize=auto;html=1;exitX=0.25;exitY=0;exitDx=0;exitDy=0;entryX=1;entryY=1;entryDx=0;entryDy=0;fillColor=#E6E6E6;" edge="1" parent="1" source="IPdCppuI9ly6e9vYi5Sx-7" target="IPdCppuI9ly6e9vYi5Sx-5">
          <mxGeometry relative="1" as="geometry" />
        </mxCell>
        <mxCell id="IPdCppuI9ly6e9vYi5Sx-9" style="rounded=0;orthogonalLoop=1;jettySize=auto;html=1;exitX=0.75;exitY=0;exitDx=0;exitDy=0;fillColor=#E6E6E6;entryX=0.008;entryY=0.917;entryDx=0;entryDy=0;entryPerimeter=0;" edge="1" parent="1" source="IPdCppuI9ly6e9vYi5Sx-7" target="IPdCppuI9ly6e9vYi5Sx-6">
          <mxGeometry relative="1" as="geometry" />
        </mxCell>
        <mxCell id="IPdCppuI9ly6e9vYi5Sx-7" value="聚合计算&lt;br&gt;语海，弘壹" style="shape=internalStorage;whiteSpace=wrap;html=1;backgroundOutline=1;fillColor=#E6E6E6;" vertex="1" parent="1">
          <mxGeometry x="349" y="270" width="130" height="80" as="geometry" />
        </mxCell>
        <mxCell id="IPdCppuI9ly6e9vYi5Sx-13" style="rounded=0;orthogonalLoop=1;jettySize=auto;html=1;exitX=1;exitY=0.5;exitDx=0;exitDy=0;fillColor=#E6E6E6;" edge="1" parent="1" source="IPdCppuI9ly6e9vYi5Sx-10" target="IPdCppuI9ly6e9vYi5Sx-7">
          <mxGeometry relative="1" as="geometry" />
        </mxCell>
        <mxCell id="IPdCppuI9ly6e9vYi5Sx-10" value="应用&amp;amp;接口分类&lt;br&gt;特征平台:慎笃" style="shape=process;whiteSpace=wrap;html=1;backgroundOutline=1;fillColor=#E6E6E6;" vertex="1" parent="1">
          <mxGeometry x="194" y="280" width="120" height="60" as="geometry" />
        </mxCell>
        <mxCell id="IPdCppuI9ly6e9vYi5Sx-12" style="rounded=0;orthogonalLoop=1;jettySize=auto;html=1;exitX=0;exitY=0.5;exitDx=0;exitDy=0;entryX=1;entryY=0.5;entryDx=0;entryDy=0;fillColor=#E6E6E6;" edge="1" parent="1" source="IPdCppuI9ly6e9vYi5Sx-11" target="IPdCppuI9ly6e9vYi5Sx-7">
          <mxGeometry relative="1" as="geometry" />
        </mxCell>
        <mxCell id="IPdCppuI9ly6e9vYi5Sx-11" value="实体拓扑&lt;br&gt;RMC：国际" style="shape=process;whiteSpace=wrap;html=1;backgroundOutline=1;fillColor=#E6E6E6;" vertex="1" parent="1">
          <mxGeometry x="509" y="280" width="120" height="60" as="geometry" />
        </mxCell>
        <mxCell id="IPdCppuI9ly6e9vYi5Sx-21" style="rounded=0;orthogonalLoop=1;jettySize=auto;html=1;exitX=0.75;exitY=0;exitDx=0;exitDy=0;entryX=0;entryY=0.75;entryDx=0;entryDy=0;fillColor=#E6E6E6;" edge="1" parent="1" source="IPdCppuI9ly6e9vYi5Sx-14" target="IPdCppuI9ly6e9vYi5Sx-7">
          <mxGeometry relative="1" as="geometry" />
        </mxCell>
        <mxCell id="IPdCppuI9ly6e9vYi5Sx-14" value="慎笃、汴南" style="rounded=1;whiteSpace=wrap;html=1;fillColor=#E6E6E6;" vertex="1" parent="1">
          <mxGeometry x="159" y="360" width="190" height="70" as="geometry" />
        </mxCell>
        <mxCell id="IPdCppuI9ly6e9vYi5Sx-22" style="rounded=0;orthogonalLoop=1;jettySize=auto;html=1;exitX=0.25;exitY=0;exitDx=0;exitDy=0;entryX=1;entryY=0.75;entryDx=0;entryDy=0;fillColor=#E6E6E6;" edge="1" parent="1" source="IPdCppuI9ly6e9vYi5Sx-15" target="IPdCppuI9ly6e9vYi5Sx-7">
          <mxGeometry relative="1" as="geometry" />
        </mxCell>
        <mxCell id="IPdCppuI9ly6e9vYi5Sx-15" value="待定" style="rounded=1;whiteSpace=wrap;html=1;fillColor=#CCCCCC;" vertex="1" parent="1">
          <mxGeometry x="479" y="360" width="180" height="70" as="geometry" />
        </mxCell>
        <mxCell id="IPdCppuI9ly6e9vYi5Sx-16" value="Rule-Alg" style="text;html=1;align=center;verticalAlign=middle;resizable=0;points=[];autosize=1;fillColor=#E6E6E6;" vertex="1" parent="1">
          <mxGeometry x="160" y="365" width="60" height="20" as="geometry" />
        </mxCell>
        <mxCell id="IPdCppuI9ly6e9vYi5Sx-17" value="Rule-SRE" style="text;html=1;align=center;verticalAlign=middle;resizable=0;points=[];autosize=1;fillColor=#CCCCCC;" vertex="1" parent="1">
          <mxGeometry x="479" y="365" width="70" height="20" as="geometry" />
        </mxCell>
        <mxCell id="IPdCppuI9ly6e9vYi5Sx-23" style="rounded=0;orthogonalLoop=1;jettySize=auto;html=1;exitX=0.5;exitY=0;exitDx=0;exitDy=0;fillColor=#E6E6E6;" edge="1" parent="1" source="IPdCppuI9ly6e9vYi5Sx-18" target="IPdCppuI9ly6e9vYi5Sx-7">
          <mxGeometry relative="1" as="geometry" />
        </mxCell>
        <mxCell id="IPdCppuI9ly6e9vYi5Sx-18" value="" style="shape=ext;rounded=1;html=1;whiteSpace=wrap;dashed=1;dashPattern=1 4;" vertex="1" parent="1">
          <mxGeometry x="119" y="445" width="590" height="140" as="geometry" />
        </mxCell>
        <mxCell id="IPdCppuI9ly6e9vYi5Sx-19" value="基础服务&amp;amp;数据" style="text;html=1;align=center;verticalAlign=middle;resizable=0;points=[];autosize=1;" vertex="1" parent="1">
          <mxGeometry x="120" y="465" width="100" height="20" as="geometry" />
        </mxCell>
        <mxCell id="IPdCppuI9ly6e9vYi5Sx-20" value="RMC元数据&lt;br&gt;RMC：国际" style="rounded=1;whiteSpace=wrap;html=1;fillColor=#E6E6E6;" vertex="1" parent="1">
          <mxGeometry x="220" y="455" width="120" height="60" as="geometry" />
        </mxCell>
        <mxCell id="IPdCppuI9ly6e9vYi5Sx-24" value="资金核对&lt;br&gt;RMC：叶辛" style="rounded=1;whiteSpace=wrap;html=1;fillColor=#E6E6E6;" vertex="1" parent="1">
          <mxGeometry x="370" y="455" width="120" height="60" as="geometry" />
        </mxCell>
        <mxCell id="IPdCppuI9ly6e9vYi5Sx-25" value="烂SQL&lt;br&gt;财富：夜忘" style="rounded=1;whiteSpace=wrap;html=1;fillColor=#E6E6E6;" vertex="1" parent="1">
          <mxGeometry x="519" y="455" width="120" height="60" as="geometry" />
        </mxCell>
        <mxCell id="IPdCppuI9ly6e9vYi5Sx-26" value="时序数据&lt;br&gt;Antmonitor" style="rounded=1;whiteSpace=wrap;html=1;fillColor=#E6E6E6;" vertex="1" parent="1">
          <mxGeometry x="219" y="515" width="120" height="60" as="geometry" />
        </mxCell>
        <mxCell id="IPdCppuI9ly6e9vYi5Sx-27" value="单笔全风险&lt;br&gt;RMC：叶辛" style="rounded=1;whiteSpace=wrap;html=1;fillColor=#E6E6E6;" vertex="1" parent="1">
          <mxGeometry x="369" y="515" width="120" height="60" as="geometry" />
        </mxCell>
        <mxCell id="IPdCppuI9ly6e9vYi5Sx-28" value="中间件&amp;amp;基础设施" style="rounded=1;whiteSpace=wrap;html=1;fillColor=#CCCCCC;" vertex="1" parent="1">
          <mxGeometry x="518" y="515" width="120" height="60" as="geometry" />
        </mxCell>
        <mxCell id="IPdCppuI9ly6e9vYi5Sx-30" value="原子计算&amp;amp;原子规则" style="text;html=1;align=center;verticalAlign=middle;resizable=0;points=[];autosize=1;" vertex="1" parent="1">
          <mxGeometry x="130" y="260" width="120" height="20" as="geometry" />
        </mxCell>
        <mxCell id="IPdCppuI9ly6e9vYi5Sx-32" value="业务规则&amp;amp;统一模型" style="text;html=1;align=center;verticalAlign=middle;resizable=0;points=[];autosize=1;" vertex="1" parent="1">
          <mxGeometry x="121" y="170" width="120" height="20" as="geometry" />
        </mxCell>
      </root>
    </mxGraphModel>
  </diagram>
</mxfile>
